HIERARCHY
ROOT root
{
	OFFSET	0	13.1	24.9
	CHANNELS 6  Xposition Yposition Zposition Xrotation Yrotation Zrotation
	JOINT spine_1
	{
		OFFSET	0	9.99999	0
		CHANNELS 3  Xrotation Yrotation Zrotation
		JOINT spine_2
		{
			OFFSET	0	112	-10
			CHANNELS 3  Xrotation Yrotation Zrotation
			JOINT spine_3
			{
				OFFSET	0	206.5	19.3
				CHANNELS 3  Xrotation Yrotation Zrotation
				JOINT spine_4
				{
					OFFSET	0	110.4	14.6
					CHANNELS 3  Xrotation Yrotation Zrotation
					JOINT neck_1
					{
						OFFSET	0	71.8	-50.3
						CHANNELS 3  Xrotation Yrotation Zrotation
						JOINT neck_2
						{
							OFFSET	0	86.2	-25.8
							CHANNELS 3  Xrotation Yrotation Zrotation
							JOINT head_ee
							{
								OFFSET	0	179.8	-8.7
								CHANNELS 3  Xrotation Yrotation Zrotation
								End Site
								{
									OFFSET	1	0	0
								}
							}
						}
					}
					JOINT left_clavicle
					{
						OFFSET	-43.2	22.4	-70.8
						CHANNELS 3  Xrotation Yrotation Zrotation
						JOINT left_shoulder
						{
							OFFSET	-93.9	-5.79999	48.7
							CHANNELS 3  Xrotation Yrotation Zrotation
							JOINT left_elbow
							{
								OFFSET	-291.4	-30.8	15.2
								CHANNELS 3  Xrotation Yrotation Zrotation
								JOINT left_lowarm_twist
								{
									OFFSET	-110.7	-3.89999	13.6
									CHANNELS 3  Xrotation Yrotation Zrotation
									JOINT left_hand
									{
										OFFSET	-110.7	-3.89999	13.6
										CHANNELS 3  Xrotation Yrotation Zrotation
										JOINT left_ee
										{
											OFFSET	-80.8	-5.10001	12.1
											CHANNELS 3  Xrotation Yrotation Zrotation
											End Site
											{
												OFFSET	1	0	0
											}
										}
									}
								}
							}
						}
					}
					JOINT right_clavicle
					{
						OFFSET	43.2	22.4	-70.8
						CHANNELS 3  Xrotation Yrotation Zrotation
						JOINT right_shoulder
						{
							OFFSET	93.9	-5.79999	48.7
							CHANNELS 3  Xrotation Yrotation Zrotation
							JOINT right_elbow
							{
								OFFSET	291.4	-30.8	15.2
								CHANNELS 3  Xrotation Yrotation Zrotation
								JOINT right_lowarm_twist
								{
									OFFSET	110.7	-3.89999	13.6
									CHANNELS 3  Xrotation Yrotation Zrotation
									JOINT right_hand
									{
										OFFSET	110.7	-3.89999	13.6
										CHANNELS 3  Xrotation Yrotation Zrotation
										JOINT right_ee
										{
											OFFSET	80.8	-5.10001	12.1
											CHANNELS 3  Xrotation Yrotation Zrotation
											End Site
											{
												OFFSET	1	0	0
											}
										}
									}
								}
							}
						}
					}
				}
			}
		}
	}
	JOINT left_hip
	{
		OFFSET	-82.8	-127.5	0.300001
		CHANNELS 3  Xrotation Yrotation Zrotation
		JOINT left_knee
		{
			OFFSET	-28.2	-396.7	2.2
			CHANNELS 3  Xrotation Yrotation Zrotation
			JOINT left_ankle
			{
				OFFSET	-11.7	-411.3	35.4
				CHANNELS 3  Xrotation Yrotation Zrotation
				JOINT left_toes
				{
					OFFSET	0	-60	-88.6
					CHANNELS 3  Xrotation Yrotation Zrotation
					JOINT left_foot_ee
					{
						OFFSET	-22.5	-16.5	-42.2
						CHANNELS 3  Xrotation Yrotation Zrotation
						End Site
						{
							OFFSET	1	0	0
						}
					}
				}
			}
		}
	}
	JOINT right_hip
	{
		OFFSET	82.8	-127.5	0.300001
		CHANNELS 3  Xrotation Yrotation Zrotation
		JOINT right_knee
		{
			OFFSET	28.2	-396.7	2.2
			CHANNELS 3  Xrotation Yrotation Zrotation
			JOINT right_ankle
			{
				OFFSET	11.7	-411.3	35.4
				CHANNELS 3  Xrotation Yrotation Zrotation
				JOINT right_toes
				{
					OFFSET	0	-60	-88.6
					CHANNELS 3  Xrotation Yrotation Zrotation
					JOINT right_foot_ee
					{
						OFFSET	22.5	-16.5	-42.2
						CHANNELS 3  Xrotation Yrotation Zrotation
						End Site
						{
							OFFSET	1	0	0
						}
					}
				}
			}
		}
	}
}
MOTION
Frames: 13
Frame Time: 0.02
683.706 694.841 -564.869 150.419 -80.4297 149.834 -3.61777 0.498764 1.60521 -3.61642 0.395623 1.63369 -3.60265 -0.0622086 1.67974 -3.60653 0.203819 1.6685 1.48368 4.29987 -1.76235 1.57543 9.05283 -1.55573 -0.0 0.0 -0.0 0.00182685 23.5094 2.72199 -19.6979 -9.94299 67.3256 0.273535 -7.71682 0.0184483 9.6481 0.238718 -1.20788 -0.276445 28.8897 9.79076 -0.0 0.0 -0.0 13.1137 22.6076 -26.297 37.1607 44.4282 -52.1658 2.09066 45.9978 -0.887468 -1.18344 0.043198 -0.144953 -1.90107 -21.2346 2.64297 0.0 0.0 0.0 27.4041 10.6502 -2.94137 -2.40238 0.0914336 0.357321 -5.837 26.6626 0.909394 -6.70641 0.0 0.0 -0.0 0.0 -0.0 -21.107 11.023 -0.422088 -6.29463 -0.207518 -0.943268 40.1123 1.79563 4.90115 -23.9841 0.0 0.0 0.0 0.0 0.0 
703.111 703.925 -555.075 45.6676 -75.2898 46.4085 -6.56634 0.097482 -0.255609 -6.56631 0.113549 -0.248888 -6.5668 0.187351 -0.199344 -6.56682 0.153517 -0.226431 4.77806 -4.60198 4.83727 5.07911 -12.1134 5.3079 -0.0 0.0 -0.0 3.50376 7.14422 7.11834 -13.7201 -10.6523 64.4377 0.184092 -5.21074 0.00837688 -18.6537 -1.01646 2.14724 1.32215 29.5362 18.8976 -0.0 0.0 -0.0 7.02712 18.6929 -12.9392 44.029 23.2765 -52.656 3.65379 61.0639 -2.15547 -4.79177 0.193279 -0.581047 -4.90161 -28.8147 15.3627 0.0 0.0 0.0 20.9554 -0.821233 3.42105 -2.33253 0.0889878 0.346881 -9.28709 27.5247 1.4616 -32.3427 0.0 0.0 -0.0 0.0 -0.0 -31.4678 8.77629 -10.2957 1.87422 0.0817045 0.275978 29.7723 -6.72324 3.86385 -40.0692 0.0 0.0 0.0 0.0 0.0 
711.977 705.795 -563.534 44.7481 -76.0082 45.4079 -6.50931 0.0571138 -0.157073 -6.5093 0.0669931 -0.153121 -6.50947 0.112424 -0.123672 -6.50948 0.0914818 -0.139875 3.43645 -4.06157 4.23751 3.64927 -10.6831 4.50188 -0.0 0.0 -0.0 4.07386 6.74498 8.13241 -12.3657 -11.144 64.6187 0.217489 -6.14934 0.0116823 -18.9502 -1.03813 2.17841 1.46217 29.5646 19.7074 -0.0 0.0 -0.0 7.33556 18.6468 -13.6152 43.8002 23.325 -52.5156 3.49361 59.965 -2.01603 -4.78036 0.192762 -0.579684 -4.69741 -27.8709 14.877 0.0 0.0 0.0 20.8125 -0.828835 3.83253 -2.4941 0.0946268 0.371036 -9.37984 25.3351 1.45841 -31.0007 0.0 0.0 -0.0 0.0 -0.0 -30.0596 8.85634 -9.01237 0.115749 0.00478354 0.0171186 28.0682 -7.5887 3.67892 -40.2069 0.0 0.0 0.0 0.0 0.0 
731.944 708.131 -571.848 44.8961 -76.7525 45.4302 -6.41299 0.0415187 0.0143529 -6.41299 0.0405212 0.0169657 -6.41298 0.0330209 0.0289729 -6.41297 0.0371822 0.0233942 4.10796 -3.07494 3.48985 4.24751 -8.32721 3.7729 -0.0 0.0 -0.0 4.39053 6.01979 8.68755 -11.472 -11.5335 64.5358 0.231585 -6.54454 0.0132407 -19.9581 -1.113 2.28356 1.67537 29.6362 20.9567 -0.0 0.0 -0.0 7.60324 19.074 -14.1685 42.3806 23.3636 -51.9347 3.24854 58.1295 -1.80583 -3.807 0.149594 -0.462968 -4.29103 -26.4685 13.5101 0.0 0.0 0.0 20.5945 -0.760385 3.64077 -2.70271 0.101807 0.402246 -11.7322 22.8236 1.80746 -30.5378 0.0 0.0 -0.0 0.0 -0.0 -30.1359 9.09768 -8.27906 -1.49624 -0.0587098 -0.222108 30.735 -10.6366 3.97875 -38.9523 0.0 0.0 0.0 0.0 0.0 
753.09 709.304 -577.197 45.765 -77.4222 46.8003 -6.24039 0.0531352 -0.0454143 -6.24039 0.0559173 -0.0419411 -6.24043 0.0662869 -0.0221778 -6.24043 0.0619524 -0.0323682 3.69484 -2.63241 3.34185 3.80865 -7.43634 3.5981 -0.0 0.0 -0.0 4.78619 5.49408 9.40219 -10.4643 -12.0153 64.6616 0.259426 -7.32322 0.0166017 -19.9596 -1.11311 2.28372 1.77961 29.6103 21.5576 -0.0 0.0 -0.0 7.88642 19.8773 -14.7283 40.2723 23.206 -51.4425 2.94854 55.5918 -1.55456 -3.81923 0.150124 -0.464439 -4.21075 -26.42 13.0817 0.0 0.0 0.0 20.5856 -0.777901 3.62904 -4.41539 0.156446 0.659402 -11.4814 22.9106 1.76901 -28.7727 0.0 0.0 -0.0 0.0 -0.0 -29.6606 8.94612 -7.92587 -3.14545 -0.116669 -0.468568 29.7502 -9.24351 3.86685 -39.4569 0.0 0.0 0.0 0.0 0.0 
775.811 709.874 -583.23 50.7193 -77.3033 51.4328 -6.37956 0.0739672 -0.0738902 -6.37956 0.0785191 -0.0690337 -6.37967 0.096375 -0.040531 -6.37966 0.0887644 -0.055243 4.24831 -2.60269 3.97011 4.394 -7.92764 4.35595 -0.0 0.0 -0.0 5.00762 4.58299 9.79498 -9.27956 -12.1696 64.6729 0.316675 -8.91561 0.0246883 -19.1677 -1.05413 2.20121 2.03555 29.6663 23.0745 -0.0 0.0 -0.0 8.00145 19.9775 -14.9733 37.7211 23.8961 -50.546 2.87224 54.8888 -1.49188 -3.99839 0.157925 -0.485974 -3.92829 -26.3798 11.4958 0.0 0.0 0.0 20.6423 -0.850553 3.60995 -10.5278 0.288278 1.58768 -7.74132 20.7596 1.17651 -27.484 0.0 0.0 -0.0 0.0 -0.0 -29.8118 10.2999 -7.10003 -7.40708 -0.233352 -1.11203 28.2302 -8.17039 3.69784 -39.3601 0.0 0.0 0.0 0.0 0.0 
792.447 711.489 -589.914 54.3955 -77.7735 55.0602 -6.37248 0.022047 -0.0366924 -6.37248 0.0243371 -0.0352151 -6.37249 0.0342557 -0.0256699 -6.37249 0.0297717 -0.0307578 4.73469 -2.32241 4.00287 4.87533 -7.47671 4.44759 -0.0 0.0 -0.0 5.71195 3.49688 11.1057 -8.33997 -12.8572 64.8915 0.33255 -9.35484 0.0272088 -19.9395 -1.1116 2.28163 1.75837 29.5225 21.4133 -0.0 0.0 -0.0 8.5621 19.6445 -16.2333 36.1429 23.1448 -50.6825 2.6798 53.0 -1.33628 -4.38568 0.175019 -0.532445 -3.86679 -25.8689 11.4656 0.0 0.0 0.0 20.8399 -1.06795 3.08628 -14.4061 0.320323 2.18178 -3.57947 16.8314 0.533521 -26.6782 0.0 0.0 -0.0 0.0 -0.0 -30.1491 10.167 -6.30095 -8.44718 -0.254537 -1.27023 26.4493 -8.68056 3.49935 -39.808 0.0 0.0 0.0 0.0 0.0 
814.322 714.979 -598.494 56.5737 -78.6295 57.5484 -6.14933 -0.0373941 -0.137987 -6.14932 -0.0285378 -0.140087 -6.14923 0.016847 -0.141968 -6.14926 -0.00578564 -0.142847 6.02443 -1.75222 3.95768 6.15076 -6.47553 4.52031 -0.0 0.0 -0.0 5.95364 3.02389 11.5623 -6.82077 -13.1367 64.8312 0.385984 -10.8248 0.0365707 -19.5292 -1.08091 2.23898 1.92011 29.6525 22.3905 -0.0 0.0 -0.0 8.63202 20.5946 -16.3154 33.0633 22.1489 -50.0248 2.55526 51.6823 -1.23768 -4.39608 0.175482 -0.533691 -3.66585 -24.8459 10.9407 0.0 0.0 0.0 19.9147 -1.26353 2.62782 -16.8606 0.319804 2.55834 0.952381 14.1242 -0.139754 -26.198 0.0 0.0 -0.0 0.0 -0.0 -29.8063 10.5103 -5.18565 -10.4096 -0.286671 -1.56962 27.0668 -8.07969 3.56797 -39.7541 0.0 0.0 0.0 0.0 0.0 
847.988 729.517 -610.439 57.8236 -78.0926 59.1287 -6.22216 -0.158075 -0.244108 -6.22214 -0.142222 -0.253672 -6.22141 -0.0551095 -0.285551 -6.22151 -0.0995152 -0.273264 5.98579 0.0828217 5.65581 6.13379 -4.86069 6.55925 -0.0 0.0 -0.0 6.15175 2.54599 11.9396 -5.725 -13.3115 65.7978 0.448161 -12.5172 0.0491499 -19.666 -1.09111 2.25322 1.31114 29.473 18.8182 -0.0 0.0 -0.0 8.61817 17.3643 -16.5128 27.908 20.3468 -51.1529 2.73299 53.5394 -1.37892 -5.39336 0.220964 -0.652811 -3.27481 -21.7913 10.4509 0.0 0.0 0.0 18.9181 -0.935406 2.60107 -20.7896 0.285417 3.16008 0.614333 14.1285 -0.0902218 -25.0833 0.0 0.0 -0.0 0.0 -0.0 -28.2121 12.0018 -4.99417 -14.8972 -0.32151 -2.25712 26.7504 -8.46763 3.53303 -40.1761 0.0 0.0 0.0 0.0 0.0 
869.954 724.329 -614.27 58.9021 -78.4211 60.0933 -5.84286 -0.198292 -0.326367 -5.84282 -0.177123 -0.338323 -5.84161 -0.0640772 -0.376469 -5.84178 -0.122729 -0.361625 6.42143 -0.386063 6.46624 6.63787 -6.39702 7.53034 -0.0 0.0 -0.0 6.16378 1.37986 11.9553 -4.92136 -13.5483 65.38 0.494007 -13.7512 0.0595681 -20.6521 -1.16563 2.35519 1.09546 29.2272 17.5235 -0.0 0.0 -0.0 7.1652 17.6229 -13.3179 23.4274 19.5809 -52.5423 2.93838 55.4996 -1.54619 -5.36867 0.219813 -0.649872 -2.94169 -18.97 10.0249 0.0 0.0 0.0 18.1094 -1.16459 2.67229 -22.6976 0.253853 3.45115 5.70892 12.7421 -0.82542 -24.2708 0.0 0.0 -0.0 0.0 -0.0 -27.3197 12.3587 -4.80785 -19.5227 -0.301012 -2.96633 28.0602 -9.43696 3.68252 -39.1924 0.0 0.0 0.0 0.0 0.0 
897.856 722.108 -617.956 55.077 -78.8479 56.2575 -5.18977 -0.229399 -0.366466 -5.18972 -0.205615 -0.380321 -5.18816 -0.0830647 -0.424289 -5.18838 -0.14903 -0.405846 6.24139 0.935514 6.57913 6.41338 -4.25085 7.68758 -0.0 0.0 -0.0 6.61597 0.778286 12.8353 -3.47956 -14.0846 64.9925 0.514082 -14.2875 0.0644314 -21.5304 -1.23347 2.44494 0.780482 29.1584 15.7255 -0.0 0.0 -0.0 7.01013 17.3287 -13.0015 19.5344 17.1295 -54.0621 2.89238 55.0768 -1.50838 -5.19631 0.211813 -0.629337 -2.65998 -18.4432 8.59017 0.0 0.0 0.0 16.9451 -1.15626 2.75807 -23.8605 0.229867 3.62798 8.08089 10.6232 -1.15724 -23.4977 0.0 0.0 -0.0 0.0 -0.0 -25.5369 12.7647 -4.29933 -23.5908 -0.235749 -3.58702 29.0177 -8.50053 3.78506 -38.7863 0.0 0.0 0.0 0.0 0.0 
927.75 726.117 -623.021 52.6607 -78.7776 54.0089 -4.89908 -0.166433 -0.670674 -4.89884 -0.12342 -0.679904 -4.89687 0.081112 -0.686238 -4.89753 -0.0282818 -0.690436 6.5859 1.20706 7.47956 6.80514 -4.62189 8.78413 -0.0 0.0 -0.0 6.84028 0.539229 13.2762 -2.2603 -14.8235 65.0128 0.550582 -15.2561 0.0737381 -25.1892 -1.5307 2.80738 -0.221969 28.927 10.102 -0.0 0.0 -0.0 6.64638 16.2295 -12.2895 14.1 15.5471 -54.8718 2.88885 55.044 -1.50548 -4.07377 0.161227 -0.495028 -2.26245 -13.2947 8.76352 0.0 0.0 0.0 14.723 -0.985412 2.89526 -23.5585 0.23644 3.58211 13.8326 11.6581 -1.94351 -25.5462 0.0 0.0 -0.0 0.0 -0.0 -22.5991 12.5939 -2.73097 -30.0339 -0.0427677 -4.55648 29.5729 -9.65527 3.84926 -37.4963 0.0 0.0 0.0 0.0 0.0 
946.585 732.24 -630.669 47.8264 -78.2598 49.1666 -4.56228 -0.391555 -0.879854 -4.56191 -0.334776 -0.902984 -4.55568 -0.0613912 -0.961082 -4.55691 -0.212399 -0.939328 6.12874 0.968658 8.95224 6.46112 -6.29474 10.455 -0.0 0.0 -0.0 7.19195 -0.283579 13.974 -0.51333 -15.6298 65.2297 0.624848 -17.199 0.0944949 -24.7651 -1.49507 2.76634 -0.031431 26.6901 10.3557 -0.0 0.0 -0.0 6.13295 16.5309 -11.1608 10.0664 14.4069 -55.5207 2.6233 52.4119 -1.29133 -5.27977 0.215679 -0.639283 -2.2061 -12.9127 8.59596 0.0 0.0 0.0 13.972 -1.33527 2.98499 -24.5806 0.213215 3.73724 13.7093 8.05052 -1.92239 -25.3305 0.0 0.0 -0.0 0.0 -0.0 -20.095 13.5066 -2.30046 -34.1319 0.136242 -5.1597 32.0768 -7.92451 4.10851 -37.2137 0.0 0.0 0.0 0.0 0.0 
